<?xml version="1.0" encoding="utf-8"?>
<!-- Generator: Adobe Illustrator 27.5.0, SVG Export Plug-In . SVG Version: 6.00 Build 0)  -->
<svg version="1.1" id="BACKGROUND" xmlns="http://www.w3.org/2000/svg" xmlns:xlink="http://www.w3.org/1999/xlink" x="0px" y="0px"
	 viewBox="0 0 750 500" style="enable-background:new 0 0 750 500;" xml:space="preserve">
<g>
	<rect style="fill:#73CAC4;" width="750" height="500"/>
	<g>
		<g>
			<g>
				<path style="fill:none;stroke:#0A332F;stroke-width:27;stroke-linecap:round;stroke-linejoin:round;stroke-miterlimit:10;" d="
					M250.258,343.409l-46.303,6.217v-44.015l-20.594,41.665l-11.98,1.607l-18.575-31.829v39.438l-22.344,3V251.406l32.843-4.409
					l23.286,35.909l22.21-42.017l41.457-5.566V343.409z"/>
				<path style="fill:none;stroke:#0A332F;stroke-width:27;stroke-linecap:round;stroke-linejoin:round;stroke-miterlimit:10;" d="
					M428.736,319.311l-48.457,6.506c-0.18-0.514-2.153-5.856-5.922-16.029l-24.766,3.324l-5.922,17.621l-24.767,3.325
					l38.497-113.255l33.112-4.445L428.736,319.311z M367.358,290.672l-5.384-14.219l-5.25,15.647L367.358,290.672z"/>
				<path style="fill:none;stroke:#0A332F;stroke-width:27;stroke-linecap:round;stroke-linejoin:round;stroke-miterlimit:10;" d="
					M553.108,302.748l-46.303,6.217v-44.015l-20.594,41.665l-11.979,1.608l-18.575-31.83v39.439l-22.344,3V210.745l32.842-4.409
					l23.286,35.909l22.21-42.017l41.457-5.566V302.748z"/>
				
					<polygon style="fill:none;stroke:#0A332F;stroke-width:27;stroke-linecap:round;stroke-linejoin:round;stroke-miterlimit:10;" points="
					314.678,234.494 314.678,226.539 285.051,230.517 261.966,233.616 261.966,233.616 255.423,234.494 255.423,242.45 
					261.966,241.572 261.966,333.867 255.423,334.746 255.423,342.702 261.966,341.823 261.966,341.837 308.135,335.638 
					308.135,335.624 314.678,334.746 314.678,326.79 308.135,327.669 308.135,235.373 				"/>
				
					<polygon style="fill:none;stroke:#0A332F;stroke-width:27;stroke-linecap:round;stroke-linejoin:round;stroke-miterlimit:10;" points="
					617.528,193.824 617.528,185.869 558.273,193.824 558.273,201.78 564.817,200.902 564.817,293.197 558.273,294.076 
					558.273,302.031 564.817,301.153 564.817,301.176 610.985,294.977 610.985,294.954 617.528,294.076 617.528,286.12 
					610.985,286.999 610.985,194.703 				"/>
			</g>
		</g>
		<g>
			<g>
				<path style="fill:#F69DBB;" d="M250.258,343.409l-46.303,6.217v-44.015l-20.594,41.665l-11.98,1.607l-18.575-31.829v39.438
					l-22.344,3V251.406l32.843-4.409l23.286,35.909l22.21-42.017l41.457-5.566V343.409z"/>
				<path class="miami-letters" style="fill:#F69DBB;" d="M428.736,319.311l-48.457,6.506c-0.18-0.514-2.153-5.856-5.922-16.029l-24.766,3.324
					l-5.922,17.621l-24.767,3.325l38.497-113.255l33.112-4.445L428.736,319.311z M367.358,290.672l-5.384-14.219l-5.25,15.647
					L367.358,290.672z"/>
				<path style="fill:#F69DBB;" d="M553.108,302.748l-46.303,6.217v-44.015l-20.594,41.665l-11.979,1.608l-18.575-31.83v39.439
					l-22.344,3V210.745l32.842-4.409l23.286,35.909l22.21-42.017l41.457-5.566V302.748z"/>
				<polygon style="fill:#F69DBB;" points="314.678,234.494 314.678,226.539 285.051,230.517 261.966,233.616 261.966,233.616 
					255.423,234.494 255.423,242.45 261.966,241.572 261.966,333.867 255.423,334.746 255.423,342.702 261.966,341.823 
					261.966,341.837 308.135,335.638 308.135,335.624 314.678,334.746 314.678,326.79 308.135,327.669 308.135,235.373 				"/>
				<polygon style="fill:#F69DBB;" points="617.528,193.824 617.528,185.869 558.273,193.824 558.273,201.78 564.817,200.902 
					564.817,293.197 558.273,294.076 558.273,302.031 564.817,301.153 564.817,301.176 610.985,294.977 610.985,294.954 
					617.528,294.076 617.528,286.12 610.985,286.999 610.985,194.703 				"/>
			</g>
		</g>
		<g>
			<g>
				<polygon style="fill:#F2788F;" points="168.555,255.79 191.841,291.699 214.05,249.682 250.258,244.82 250.258,235.322 
					208.8,240.889 186.591,282.906 163.305,246.997 130.462,251.406 130.462,359.493 135.712,358.788 135.712,260.199 				"/>
				<polygon style="fill:#F2788F;" points="393.868,225.404 390.509,216.358 357.398,220.803 318.901,334.058 327.534,332.899 
					362.648,229.596 				"/>
				<polygon style="fill:#F2788F;" points="471.405,215.129 494.691,251.038 516.901,209.02 553.108,204.159 553.108,194.661 
					511.651,200.228 489.441,242.245 466.155,206.336 433.313,210.745 433.313,318.832 438.563,318.127 438.563,219.538 				"/>
				<polygon style="fill:#F2788F;" points="261.966,251.069 261.966,333.867 255.508,334.734 255.508,342.69 261.966,341.823 
					261.966,341.837 267.216,341.132 267.216,250.364 				"/>
				<polygon style="fill:#F2788F;" points="290.301,239.309 308.135,236.915 308.135,235.373 314.678,234.494 314.678,226.539 
					285.051,230.517 261.966,233.616 255.423,234.494 255.423,242.45 261.966,241.572 261.966,243.113 267.216,242.409 				"/>
				<polygon style="fill:#F2788F;" points="564.817,210.399 564.817,293.197 558.358,294.064 558.358,302.02 564.817,301.153 
					564.817,301.176 570.067,300.471 570.067,209.694 				"/>
				<polygon style="fill:#F2788F;" points="610.985,194.703 617.528,193.824 617.528,185.869 558.273,193.824 558.273,201.78 
					564.817,200.902 564.817,202.443 610.985,196.245 				"/>
				<polygon style="fill:#F2788F;" points="255.423,334.746 255.423,342.702 255.508,342.69 255.508,334.734 				"/>
				<polygon style="fill:#F2788F;" points="558.273,294.076 558.273,302.031 558.358,302.02 558.358,294.064 				"/>
			</g>
		</g>
		<g>
			<g>
				<g>
					<path style="fill:#FFFFFF;" d="M250.258,235.322v108.086l-46.303,6.217v-44.015l-20.594,41.665l-11.98,1.607l-18.575-31.829
						v39.438l-22.344,3V251.406l32.843-4.409l23.286,35.909l22.21-42.017L250.258,235.322 M250.258,231.322
						c-0.177,0-0.355,0.012-0.532,0.036l-41.458,5.566c-1.281,0.172-2.4,0.952-3.004,2.095l-19.025,35.992l-19.578-30.191
						c-0.744-1.147-2.012-1.824-3.355-1.824c-0.177,0-0.355,0.012-0.533,0.036l-32.843,4.409c-1.986,0.267-3.468,1.961-3.468,3.964
						v108.086c0,1.154,0.498,2.251,1.366,3.011c0.733,0.642,1.671,0.989,2.633,0.989c0.177,0,0.355-0.012,0.532-0.036l22.344-3
						c1.986-0.267,3.468-1.961,3.468-3.964v-24.648l11.12,19.055c0.723,1.239,2.045,1.984,3.454,1.984
						c0.177,0,0.355-0.012,0.533-0.036l11.98-1.607c1.319-0.177,2.464-0.999,3.054-2.192l13.008-26.318v26.895
						c0,1.154,0.498,2.251,1.366,3.011c0.734,0.642,1.671,0.989,2.633,0.989c0.177,0,0.355-0.012,0.532-0.036l46.303-6.217
						c1.986-0.267,3.468-1.961,3.468-3.964V235.322c0-1.154-0.498-2.251-1.367-3.011C252.158,231.67,251.22,231.322,250.258,231.322
						L250.258,231.322z"/>
				</g>
				<g>
					<path style="fill:#FFFFFF;" d="M390.509,216.358l38.227,102.954l-48.457,6.506c-0.18-0.514-2.153-5.856-5.922-16.029
						l-24.766,3.324l-5.922,17.621l-24.767,3.325l38.496-113.255L390.509,216.358 M356.724,292.099l10.634-1.428l-5.384-14.219
						L356.724,292.099 M390.512,212.357c-0.177,0-0.355,0.012-0.535,0.036l-33.112,4.445c-1.505,0.202-2.766,1.239-3.255,2.677
						l-38.496,113.255c-0.446,1.311-0.182,2.759,0.698,3.828c0.765,0.931,1.902,1.459,3.089,1.459c0.177,0,0.355-0.012,0.533-0.036
						l24.767-3.325c1.51-0.203,2.774-1.246,3.259-2.69l5.13-15.262l19.128-2.567c3.927,10.602,4.694,12.697,4.786,12.96
						c0.567,1.621,2.094,2.679,3.773,2.679c0.177,0,0.355-0.012,0.535-0.036l48.457-6.506c1.205-0.162,2.271-0.863,2.897-1.905
						c0.626-1.042,0.744-2.312,0.321-3.452l-38.227-102.954C393.671,213.382,392.163,212.357,390.512,212.357L390.512,212.357z"/>
				</g>
				<g>
					<path style="fill:#FFFFFF;" d="M553.108,194.661v108.086l-46.303,6.217v-44.015l-20.594,41.665l-11.98,1.608l-18.575-31.83
						v39.439l-22.344,3V210.745l32.842-4.409l23.286,35.909l22.21-42.017L553.108,194.661 M553.108,190.661
						c-0.177,0-0.355,0.012-0.533,0.036l-41.457,5.566c-1.281,0.172-2.4,0.952-3.004,2.095l-19.025,35.992l-19.578-30.191
						c-0.743-1.147-2.012-1.824-3.355-1.824c-0.177,0-0.355,0.012-0.533,0.036l-32.842,4.409c-1.986,0.266-3.468,1.961-3.468,3.964
						v108.086c0,1.154,0.498,2.251,1.366,3.011c0.733,0.642,1.671,0.989,2.633,0.989c0.177,0,0.355-0.012,0.533-0.036l22.344-3
						c1.986-0.267,3.468-1.961,3.468-3.964v-24.649l11.12,19.055c0.723,1.239,2.045,1.984,3.454,1.984
						c0.177,0,0.355-0.012,0.533-0.036l11.98-1.608c1.319-0.177,2.464-0.999,3.053-2.192l13.008-26.317v26.895
						c0,1.154,0.498,2.251,1.366,3.011c0.733,0.642,1.671,0.989,2.633,0.989c0.177,0,0.355-0.012,0.532-0.036l46.303-6.217
						c1.986-0.267,3.468-1.961,3.468-3.964V194.661c0-1.154-0.498-2.251-1.366-3.011
						C555.008,191.009,554.071,190.661,553.108,190.661L553.108,190.661z"/>
				</g>
				<g>
					<path style="fill:#FFFFFF;" d="M314.678,226.539v7.956l-6.543,0.878v92.296l6.543-0.879v7.956l-6.543,0.879v0.014
						l-46.169,6.198v-0.014l-6.543,0.879v-7.956l6.543-0.878v-92.296l-6.543,0.879v-7.956l6.543-0.878l23.085-3.099L314.678,226.539
						 M314.678,222.539c-0.177,0-0.355,0.012-0.532,0.036l-29.627,3.978l-23.085,3.099l-6.543,0.878
						c-1.986,0.266-3.468,1.961-3.468,3.964v7.956c0,1.154,0.498,2.251,1.367,3.011c0.733,0.641,1.671,0.989,2.633,0.989
						c0.177,0,0.355-0.012,0.533-0.036l2.011-0.27v84.224l-3.075,0.413c-1.986,0.267-3.468,1.961-3.468,3.964v7.956
						c0,1.154,0.498,2.251,1.367,3.011c0.733,0.642,1.671,0.989,2.633,0.989c0.177,0,0.355-0.012,0.532-0.036l6.217-0.835
						c0.109-0.005,0.217-0.016,0.326-0.03l46.169-6.198c0.112-0.015,0.222-0.035,0.331-0.059l6.212-0.834
						c1.986-0.267,3.468-1.961,3.468-3.964v-7.956c0-1.154-0.498-2.251-1.366-3.011c-0.733-0.642-1.671-0.989-2.633-0.989
						c-0.177,0-0.355,0.012-0.532,0.036l-2.011,0.27v-84.224l3.075-0.413c1.986-0.267,3.468-1.961,3.468-3.964v-7.956
						c0-1.154-0.498-2.251-1.366-3.011C316.578,222.886,315.641,222.539,314.678,222.539L314.678,222.539z"/>
				</g>
				<g>
					<path style="fill:#FFFFFF;" d="M617.528,185.869v7.956l-6.543,0.878v92.296l6.543-0.879v7.956l-6.543,0.879v0.023
						l-46.168,6.198v-0.023l-6.544,0.879v-7.956l6.544-0.879v-92.296l-6.544,0.879v-7.956L617.528,185.869 M617.529,181.869
						c-0.177,0-0.355,0.012-0.533,0.036l-59.255,7.956c-1.986,0.267-3.468,1.961-3.468,3.964v7.956c0,1.154,0.498,2.251,1.367,3.011
						c0.733,0.642,1.671,0.989,2.633,0.989c0.177,0,0.355-0.012,0.533-0.036l2.011-0.27v84.224l-3.076,0.413
						c-1.986,0.267-3.468,1.961-3.468,3.965v7.956c0,1.154,0.498,2.251,1.367,3.011c0.733,0.642,1.671,0.989,2.633,0.989
						c0.177,0,0.355-0.012,0.533-0.036l6.125-0.823c0.139-0.004,0.279-0.015,0.418-0.034l46.168-6.198
						c0.143-0.019,0.284-0.046,0.421-0.08l6.122-0.822c1.986-0.267,3.468-1.961,3.468-3.964v-7.956c0-1.154-0.498-2.251-1.366-3.011
						c-0.733-0.642-1.671-0.989-2.633-0.989c-0.177,0-0.355,0.012-0.532,0.036l-2.011,0.27v-84.224l3.076-0.413
						c1.986-0.267,3.468-1.961,3.468-3.964v-7.956c0-1.154-0.498-2.251-1.366-3.011
						C619.428,182.216,618.491,181.869,617.529,181.869L617.529,181.869z"/>
				</g>
			</g>
		</g>
	</g>
	<g>
		<path style="fill:none;stroke:#FFFFFF;stroke-width:3;stroke-linecap:round;stroke-linejoin:round;stroke-miterlimit:10;" d="
			M630.855,425.407c0,0-17.682,1.875-28.431-9.75c-10.748,11.625-28.431,9.75-28.431,9.75s-17.682,1.875-28.431-9.75
			c-10.748,11.625-28.43,9.75-28.43,9.75s-17.682,1.875-28.431-9.75c-10.748,11.625-28.431,9.75-28.431,9.75
			s-17.682,1.875-28.431-9.75c-10.748,11.625-28.431,9.75-28.431,9.75s-17.682,1.875-28.43-9.75
			c-10.748,11.625-28.431,9.75-28.431,9.75s-17.682,1.875-28.431-9.75c-10.748,11.625-28.431,9.75-28.431,9.75
			s-17.682,1.875-28.431-9.75c-10.748,11.625-28.431,9.75-28.431,9.75s-17.682,1.875-28.43-9.75
			c-10.748,11.625-28.431,9.75-28.431,9.75s-17.682,1.875-28.431-9.75"/>
		<path style="fill:none;stroke:#FFFFFF;stroke-width:3;stroke-linecap:round;stroke-linejoin:round;stroke-miterlimit:10;" d="
			M630.855,433.471c-10.748,11.625-28.431,9.75-28.431,9.75s-17.682,1.875-28.431-9.75c-10.748,11.625-28.431,9.75-28.431,9.75
			s-17.682,1.875-28.43-9.75c-10.748,11.625-28.431,9.75-28.431,9.75s-17.682,1.875-28.431-9.75
			c-10.748,11.625-28.431,9.75-28.431,9.75s-17.682,1.875-28.431-9.75c-10.748,11.625-28.43,9.75-28.43,9.75
			s-17.682,1.875-28.431-9.75c-10.748,11.625-28.431,9.75-28.431,9.75s-17.682,1.875-28.431-9.75
			c-10.748,11.625-28.431,9.75-28.431,9.75s-17.682,1.875-28.431-9.75c-10.748,11.625-28.43,9.75-28.43,9.75
			s-17.682,1.875-28.431-9.75c-10.748,11.625-28.431,9.75-28.431,9.75"/>
	</g>
	<g>
		
			<line style="fill:none;stroke:#FFFFFF;stroke-width:3;stroke-linecap:round;stroke-linejoin:round;stroke-miterlimit:10;" x1="123.412" y1="230.234" x2="121.945" y2="184.453"/>
		
			<line style="fill:none;stroke:#FFFFFF;stroke-width:3;stroke-linecap:round;stroke-linejoin:round;stroke-miterlimit:10;" x1="130.195" y1="441.917" x2="128.331" y2="383.738"/>
		<g>
			<path style="fill:none;stroke:#FFFFFF;stroke-width:3;stroke-linecap:round;stroke-linejoin:round;stroke-miterlimit:10;" d="
				M116.195,179.453l52,36.867c0,0-9.5-27.234-23.5-36.867C130.695,169.82,116.195,179.453,116.195,179.453z"/>
			<path style="fill:none;stroke:#FFFFFF;stroke-width:3;stroke-linecap:round;stroke-linejoin:round;stroke-miterlimit:10;" d="
				M116.195,179.453c0,0,12.5-40.758,64.25-22.758L116.195,179.453z"/>
			<path style="fill:none;stroke:#FFFFFF;stroke-width:3;stroke-linecap:round;stroke-linejoin:round;stroke-miterlimit:10;" d="
				M116.195,179.453c0,0-11.125-44.508,26-64.008L116.195,179.453z"/>
			<path style="fill:none;stroke:#FFFFFF;stroke-width:3;stroke-linecap:round;stroke-linejoin:round;stroke-miterlimit:10;" d="
				M114.633,179.453l-52,36.867c0,0,9.5-27.234,23.5-36.867C100.133,169.82,114.633,179.453,114.633,179.453z"/>
			<path style="fill:none;stroke:#FFFFFF;stroke-width:3;stroke-linecap:round;stroke-linejoin:round;stroke-miterlimit:10;" d="
				M114.633,179.453c0,0-12.5-40.758-64.25-22.758L114.633,179.453z"/>
			<path style="fill:none;stroke:#FFFFFF;stroke-width:3;stroke-linecap:round;stroke-linejoin:round;stroke-miterlimit:10;" d="
				M114.633,179.453c0,0,11.125-44.508-26-64.008L114.633,179.453z"/>
		</g>
		
			<polyline style="fill:none;stroke:#FFFFFF;stroke-width:3;stroke-linecap:round;stroke-linejoin:round;stroke-miterlimit:10;" points="
			122.258,194.231 107.209,203.231 122.678,213.986 106.535,224.25 116.195,234.236 		"/>
		
			<polyline style="fill:none;stroke:#FFFFFF;stroke-width:3;stroke-linecap:round;stroke-linejoin:round;stroke-miterlimit:10;" points="
			107.811,184.453 99.561,441.917 129.645,424.742 100.493,412.828 128.731,396.24 101.425,383.738 116.855,375.483 		"/>
	</g>
	<g>
		<g>
			
				<line style="fill:none;stroke:#FFFFFF;stroke-width:3;stroke-linecap:round;stroke-linejoin:round;stroke-miterlimit:10;" x1="266.01" y1="383.946" x2="250.258" y2="386.075"/>
			
				<line style="fill:none;stroke:#FFFFFF;stroke-width:3;stroke-linecap:round;stroke-linejoin:round;stroke-miterlimit:10;" x1="310.105" y1="377.986" x2="275.905" y2="382.608"/>
			
				<line style="fill:none;stroke:#FFFFFF;stroke-width:3;stroke-linecap:round;stroke-linejoin:round;stroke-miterlimit:10;" x1="424.73" y1="362.493" x2="320.944" y2="376.521"/>
		</g>
		<g>
			
				<line style="fill:none;stroke:#FFFFFF;stroke-width:3;stroke-linecap:round;stroke-linejoin:round;stroke-miterlimit:10;" x1="189.62" y1="379.731" x2="255.423" y2="371.236"/>
			
				<line style="fill:none;stroke:#FFFFFF;stroke-width:3;stroke-linecap:round;stroke-linejoin:round;stroke-miterlimit:10;" x1="165.24" y1="382.879" x2="183.263" y2="380.552"/>
			
				<line style="fill:none;stroke:#FFFFFF;stroke-width:3;stroke-linecap:round;stroke-linejoin:round;stroke-miterlimit:10;" x1="150.855" y1="384.736" x2="158.875" y2="383.7"/>
		</g>
		<g>
			
				<line style="fill:none;stroke:#FFFFFF;stroke-width:3;stroke-linecap:round;stroke-linejoin:round;stroke-miterlimit:10;" x1="259.392" y1="394.686" x2="318.901" y2="386.416"/>
			
				<line style="fill:none;stroke:#FFFFFF;stroke-width:3;stroke-linecap:round;stroke-linejoin:round;stroke-miterlimit:10;" x1="238.698" y1="397.561" x2="252.591" y2="395.631"/>
			
				<line style="fill:none;stroke:#FFFFFF;stroke-width:3;stroke-linecap:round;stroke-linejoin:round;stroke-miterlimit:10;" x1="225.355" y1="399.416" x2="232.526" y2="398.419"/>
		</g>
		<g>
			
				<line style="fill:none;stroke:#FFFFFF;stroke-width:3;stroke-linecap:round;stroke-linejoin:round;stroke-miterlimit:10;" x1="521.869" y1="336.096" x2="532.355" y2="334.734"/>
			
				<line style="fill:none;stroke:#FFFFFF;stroke-width:3;stroke-linecap:round;stroke-linejoin:round;stroke-miterlimit:10;" x1="489.119" y1="340.348" x2="513.137" y2="337.23"/>
			
				<line style="fill:none;stroke:#FFFFFF;stroke-width:3;stroke-linecap:round;stroke-linejoin:round;stroke-miterlimit:10;" x1="286.105" y1="366.706" x2="479.371" y2="341.613"/>
		</g>
		
			<line style="fill:none;stroke:#FFFFFF;stroke-width:3;stroke-linecap:round;stroke-linejoin:round;stroke-miterlimit:10;" x1="572.851" y1="329.584" x2="610.357" y2="324.236"/>
	</g>
	<g>
		<g>
			<path style="fill:none;stroke:#FFFFFF;stroke-width:3;stroke-linecap:round;stroke-linejoin:round;stroke-miterlimit:10;" d="
				M400.355,408.999c0,0-18.729-14.895-35.697-3.785"/>
			<path style="fill:none;stroke:#FFFFFF;stroke-width:3;stroke-linecap:round;stroke-linejoin:round;stroke-miterlimit:10;" d="
				M395.292,397.286c0,0-6.453-10.063-16.992-10.903"/>
			<path style="fill:none;stroke:#FFFFFF;stroke-width:3;stroke-linecap:round;stroke-linejoin:round;stroke-miterlimit:10;" d="
				M367.306,391.877c0,0-7.259-1.032-15.358,3.482"/>
			<path style="fill:none;stroke:#FFFFFF;stroke-width:3;stroke-linecap:round;stroke-linejoin:round;stroke-miterlimit:10;" d="
				M351.948,405.048c0,0-5.691,2.694-8.15,5.749"/>
		</g>
		<g>
			<path style="fill:none;stroke:#FFFFFF;stroke-width:3;stroke-linecap:round;stroke-linejoin:round;stroke-miterlimit:10;" d="
				M414.605,412.986c0,0-9.75-11.251-14.25-22.251l210-31.243c0,0,0.657,32.914-24.389,53.493"/>
			<g>
				<path style="fill:none;stroke:#FFFFFF;stroke-width:3;stroke-linecap:round;stroke-linejoin:round;stroke-miterlimit:10;" d="
					M565.889,381.919v11.519c0,1.923-1.558,3.481-3.481,3.481l0,0c-1.922,0-3.481-1.559-3.481-3.481v-2.003"/>
				<path style="fill:none;stroke:#FFFFFF;stroke-width:3;stroke-linecap:round;stroke-linejoin:round;stroke-miterlimit:10;" d="
					M565.889,381.919v11.519c0,1.923,1.559,3.481,3.481,3.481l0,0c1.923,0,3.481-1.559,3.481-3.481v-2.003"/>
			</g>
			
				<polyline style="fill:none;stroke:#FFFFFF;stroke-width:3;stroke-linecap:round;stroke-linejoin:round;stroke-miterlimit:10;" points="
				580.624,363.349 559.646,329.584 542.855,340.361 565.263,338.625 			"/>
			
				<line style="fill:none;stroke:#FFFFFF;stroke-width:3;stroke-linecap:round;stroke-linejoin:round;stroke-miterlimit:10;" x1="405.951" y1="401.236" x2="556.355" y2="381.919"/>
			
				<line style="fill:none;stroke:#FFFFFF;stroke-width:3;stroke-linecap:round;stroke-linejoin:round;stroke-miterlimit:10;" x1="575.48" y1="379.946" x2="608.127" y2="376.297"/>
			<g>
				
					<polyline style="fill:none;stroke:#FFFFFF;stroke-width:3;stroke-linecap:round;stroke-linejoin:round;stroke-miterlimit:10;" points="
					543.95,369.372 526.355,356.736 494.855,364.486 494.855,376.677 				"/>
				
					<line style="fill:none;stroke:#FFFFFF;stroke-width:3;stroke-linecap:round;stroke-linejoin:round;stroke-miterlimit:10;" x1="494.855" y1="364.486" x2="447.184" y2="383.769"/>
				
					<line style="fill:none;stroke:#FFFFFF;stroke-width:3;stroke-linecap:round;stroke-linejoin:round;stroke-miterlimit:10;" x1="510.576" y1="360.618" x2="518.066" y2="373.223"/>
			</g>
		</g>
	</g>
	<g>
		
			<line style="fill:none;stroke:#FFFFFF;stroke-width:3;stroke-linecap:round;stroke-linejoin:round;stroke-miterlimit:10;" x1="649.576" y1="442.332" x2="641.326" y2="137.986"/>
		
			<line style="fill:none;stroke:#FFFFFF;stroke-width:3;stroke-linecap:round;stroke-linejoin:round;stroke-miterlimit:10;" x1="626.404" y1="164.237" x2="627.192" y2="137.986"/>
		
			<line style="fill:none;stroke:#FFFFFF;stroke-width:3;stroke-linecap:round;stroke-linejoin:round;stroke-miterlimit:10;" x1="618.942" y1="412.986" x2="621.766" y2="318.832"/>
		<g>
			<path style="fill:none;stroke:#FFFFFF;stroke-width:3;stroke-linecap:round;stroke-linejoin:round;stroke-miterlimit:10;" d="
				M635.367,133.334l52,36.867c0,0-9.5-27.234-23.5-36.867C649.867,123.701,635.367,133.334,635.367,133.334z"/>
			<path style="fill:none;stroke:#FFFFFF;stroke-width:3;stroke-linecap:round;stroke-linejoin:round;stroke-miterlimit:10;" d="
				M635.367,133.334c0,0,12.5-40.758,64.25-22.758L635.367,133.334z"/>
			<path style="fill:none;stroke:#FFFFFF;stroke-width:3;stroke-linecap:round;stroke-linejoin:round;stroke-miterlimit:10;" d="
				M635.367,133.334c0,0-11.125-44.508,26-64.008L635.367,133.334z"/>
			<path style="fill:none;stroke:#FFFFFF;stroke-width:3;stroke-linecap:round;stroke-linejoin:round;stroke-miterlimit:10;" d="
				M633.805,133.334l-52,36.867c0,0,9.5-27.234,23.5-36.867C619.305,123.701,633.805,133.334,633.805,133.334z"/>
			<path style="fill:none;stroke:#FFFFFF;stroke-width:3;stroke-linecap:round;stroke-linejoin:round;stroke-miterlimit:10;" d="
				M633.805,133.334c0,0-12.5-40.758-64.25-22.758L633.805,133.334z"/>
			<path style="fill:none;stroke:#FFFFFF;stroke-width:3;stroke-linecap:round;stroke-linejoin:round;stroke-miterlimit:10;" d="
				M633.805,133.334c0,0,11.125-44.508-26-64.008L633.805,133.334z"/>
		</g>
		
			<polyline style="fill:none;stroke:#FFFFFF;stroke-width:3;stroke-linecap:round;stroke-linejoin:round;stroke-miterlimit:10;" points="
			627.192,137.986 641.642,149.627 627.192,155.736 641.326,164.237 631.355,170.201 		"/>
		
			<polyline style="fill:none;stroke:#FFFFFF;stroke-width:3;stroke-linecap:round;stroke-linejoin:round;stroke-miterlimit:10;" points="
			637.355,415.657 619.18,405.048 648.303,395.359 620.354,381.919 647.602,369.507 620.629,356.736 646.172,339.736 
			621.444,329.584 646.172,316.741 631.73,308.861 		"/>
	</g>
	<g>
		<g>
			
				<line style="fill:none;stroke:#FFFFFF;stroke-width:3;stroke-linecap:round;stroke-linejoin:round;stroke-miterlimit:10;" x1="183.059" y1="234.826" x2="183.059" y2="181.453"/>
			
				<polyline style="fill:none;stroke:#FFFFFF;stroke-width:3;stroke-linecap:round;stroke-linejoin:round;stroke-miterlimit:10;" points="
				229.605,160.963 229.605,182.111 237.417,181.117 237.417,216.982 			"/>
			
				<polyline style="fill:none;stroke:#FFFFFF;stroke-width:3;stroke-linecap:round;stroke-linejoin:round;stroke-miterlimit:10;" points="
				249.417,215.392 249.417,179.808 256.855,178.776 256.855,158.286 			"/>
			
				<line style="fill:none;stroke:#FFFFFF;stroke-width:3;stroke-linecap:round;stroke-linejoin:round;stroke-miterlimit:10;" x1="305.128" y1="208.199" x2="305.128" y2="165.317"/>
			
				<line style="fill:none;stroke:#FFFFFF;stroke-width:3;stroke-linecap:round;stroke-linejoin:round;stroke-miterlimit:10;" x1="219.98" y1="217.637" x2="219.98" y2="162.779"/>
			
				<line style="fill:none;stroke:#FFFFFF;stroke-width:3;stroke-linecap:round;stroke-linejoin:round;stroke-miterlimit:10;" x1="267.216" y1="213.094" x2="267.216" y2="156.375"/>
			
				<line style="fill:none;stroke:#FFFFFF;stroke-width:3;stroke-linecap:round;stroke-linejoin:round;stroke-miterlimit:10;" x1="178.355" y1="180.683" x2="219.98" y2="175.309"/>
			
				<line style="fill:none;stroke:#FFFFFF;stroke-width:3;stroke-linecap:round;stroke-linejoin:round;stroke-miterlimit:10;" x1="178.355" y1="198.836" x2="219.98" y2="193.462"/>
			
				<line style="fill:none;stroke:#FFFFFF;stroke-width:3;stroke-linecap:round;stroke-linejoin:round;stroke-miterlimit:10;" x1="178.355" y1="217.426" x2="219.98" y2="212.052"/>
			
				<polyline style="fill:none;stroke:#FFFFFF;stroke-width:3;stroke-linecap:round;stroke-linejoin:round;stroke-miterlimit:10;" points="
				267.216,186.491 308.841,181.117 316.167,183.804 			"/>
			
				<polyline style="fill:none;stroke:#FFFFFF;stroke-width:3;stroke-linecap:round;stroke-linejoin:round;stroke-miterlimit:10;" points="
				267.216,204.21 308.841,198.836 316.167,201.523 			"/>
			
				<line style="fill:none;stroke:#FFFFFF;stroke-width:3;stroke-linecap:round;stroke-linejoin:round;stroke-miterlimit:10;" x1="178.355" y1="174.859" x2="219.98" y2="169.485"/>
			
				<line style="fill:none;stroke:#FFFFFF;stroke-width:3;stroke-linecap:round;stroke-linejoin:round;stroke-miterlimit:10;" x1="214.813" y1="162.89" x2="271.73" y2="155.542"/>
			
				<line style="fill:none;stroke:#FFFFFF;stroke-width:3;stroke-linecap:round;stroke-linejoin:round;stroke-miterlimit:10;" x1="214.813" y1="156.926" x2="271.73" y2="149.578"/>
			
				<polyline style="fill:none;stroke:#FFFFFF;stroke-width:3;stroke-linecap:round;stroke-linejoin:round;stroke-miterlimit:10;" points="
				267.216,169.485 308.841,164.111 316.167,166.798 			"/>
			
				<polyline style="fill:none;stroke:#FFFFFF;stroke-width:3;stroke-linecap:round;stroke-linejoin:round;stroke-miterlimit:10;" points="
				267.216,163.66 308.841,158.286 316.167,160.963 			"/>
			
				<polygon style="fill:none;stroke:#FFFFFF;stroke-width:3;stroke-linecap:round;stroke-linejoin:round;stroke-miterlimit:10;" points="
				189.792,184.102 189.792,192.58 195.667,191.72 195.667,183.368 			"/>
			
				<polygon style="fill:none;stroke:#FFFFFF;stroke-width:3;stroke-linecap:round;stroke-linejoin:round;stroke-miterlimit:10;" points="
				202.417,182.562 202.417,191.04 208.292,190.18 208.292,181.828 			"/>
			
				<polygon style="fill:none;stroke:#FFFFFF;stroke-width:3;stroke-linecap:round;stroke-linejoin:round;stroke-miterlimit:10;" points="
				280.23,172.207 280.23,180.685 286.105,179.825 286.105,171.473 			"/>
			
				<polygon style="fill:none;stroke:#FFFFFF;stroke-width:3;stroke-linecap:round;stroke-linejoin:round;stroke-miterlimit:10;" points="
				292.855,170.667 292.855,179.145 298.73,178.285 298.73,169.933 			"/>
			
				<polygon style="fill:none;stroke:#FFFFFF;stroke-width:3;stroke-linecap:round;stroke-linejoin:round;stroke-miterlimit:10;" points="
				280.23,189.562 280.23,198.04 286.105,197.18 286.105,188.827 			"/>
			
				<polygon style="fill:none;stroke:#FFFFFF;stroke-width:3;stroke-linecap:round;stroke-linejoin:round;stroke-miterlimit:10;" points="
				292.855,188.022 292.855,196.5 298.73,195.64 298.73,187.288 			"/>
			
				<polyline style="fill:none;stroke:#FFFFFF;stroke-width:3;stroke-linecap:round;stroke-linejoin:round;stroke-miterlimit:10;" points="
				286.105,209.308 286.105,207.158 280.23,207.893 280.23,209.933 			"/>
			
				<polyline style="fill:none;stroke:#FFFFFF;stroke-width:3;stroke-linecap:round;stroke-linejoin:round;stroke-miterlimit:10;" points="
				298.73,208.058 298.73,205.618 292.855,206.353 292.855,208.746 			"/>
			
				<polygon style="fill:none;stroke:#FFFFFF;stroke-width:3;stroke-linecap:round;stroke-linejoin:round;stroke-miterlimit:10;" points="
				189.792,202.12 189.792,210.598 195.667,209.738 195.667,201.386 			"/>
			
				<polygon style="fill:none;stroke:#FFFFFF;stroke-width:3;stroke-linecap:round;stroke-linejoin:round;stroke-miterlimit:10;" points="
				202.417,200.58 202.417,209.059 208.292,208.198 208.292,199.846 			"/>
			
				<polyline style="fill:none;stroke:#FFFFFF;stroke-width:3;stroke-linecap:round;stroke-linejoin:round;stroke-miterlimit:10;" points="
				208.292,220.611 208.292,217.992 202.417,218.726 202.417,221.423 			"/>
			
				<polyline style="fill:none;stroke:#FFFFFF;stroke-width:3;stroke-linecap:round;stroke-linejoin:round;stroke-miterlimit:10;" points="
				195.667,222.326 195.667,219.708 189.792,220.442 189.792,223.139 			"/>
			
				<line style="fill:none;stroke:#FFFFFF;stroke-width:3;stroke-linecap:round;stroke-linejoin:round;stroke-miterlimit:10;" x1="229.605" y1="189.361" x2="229.605" y2="217.95"/>
			
				<line style="fill:none;stroke:#FFFFFF;stroke-width:3;stroke-linecap:round;stroke-linejoin:round;stroke-miterlimit:10;" x1="256.855" y1="185.704" x2="256.855" y2="214.294"/>
		</g>
		<g>
			<path style="fill:none;stroke:#FFFFFF;stroke-width:3;stroke-linecap:round;stroke-linejoin:round;stroke-miterlimit:10;" d="
				M341.355,203.523v-60.956c0-3.16,2.352-5.825,5.487-6.218l36.717-4.599c3.74-0.469,7.045,2.448,7.045,6.218v59.386"/>
			
				<line style="fill:none;stroke:#FFFFFF;stroke-width:3;stroke-linecap:round;stroke-linejoin:round;stroke-miterlimit:10;" x1="314.678" y1="149.578" x2="341.355" y2="146.134"/>
			
				<polyline style="fill:none;stroke:#FFFFFF;stroke-width:3;stroke-linecap:round;stroke-linejoin:round;stroke-miterlimit:10;" points="
				390.605,140.24 417.282,136.796 424.355,140.064 			"/>
			<path style="fill:none;stroke:#FFFFFF;stroke-width:3;stroke-linecap:round;stroke-linejoin:round;stroke-miterlimit:10;" d="
				M348.922,202.136v-55.507c0-1.541,1.147-2.842,2.677-3.033l28.003-3.508c1.825-0.229,3.437,1.194,3.437,3.033v54.741"/>
			
				<polygon style="fill:none;stroke:#FFFFFF;stroke-width:3;stroke-linecap:round;stroke-linejoin:round;stroke-miterlimit:10;" points="
				334.355,164.954 334.355,152.704 328.017,153.611 328.017,165.861 			"/>
			
				<polygon style="fill:none;stroke:#FFFFFF;stroke-width:3;stroke-linecap:round;stroke-linejoin:round;stroke-miterlimit:10;" points="
				334.355,183.35 334.355,171.1 328.017,172.006 328.017,184.256 			"/>
			
				<polygon style="fill:none;stroke:#FFFFFF;stroke-width:3;stroke-linecap:round;stroke-linejoin:round;stroke-miterlimit:10;" points="
				334.355,201.745 334.355,189.495 328.017,190.402 328.017,202.652 			"/>
			
				<polygon style="fill:none;stroke:#FFFFFF;stroke-width:3;stroke-linecap:round;stroke-linejoin:round;stroke-miterlimit:10;" points="
				404.93,154.888 404.93,142.638 398.592,143.544 398.592,155.794 			"/>
			
				<polygon style="fill:none;stroke:#FFFFFF;stroke-width:3;stroke-linecap:round;stroke-linejoin:round;stroke-miterlimit:10;" points="
				404.93,173.284 404.93,161.034 398.592,161.94 398.592,174.19 			"/>
			
				<polygon style="fill:none;stroke:#FFFFFF;stroke-width:3;stroke-linecap:round;stroke-linejoin:round;stroke-miterlimit:10;" points="
				404.93,191.679 404.93,179.429 398.592,180.335 398.592,192.585 			"/>
			
				<line style="fill:none;stroke:#FFFFFF;stroke-width:3;stroke-linecap:round;stroke-linejoin:round;stroke-miterlimit:10;" x1="353.667" y1="150.611" x2="376.917" y2="147.856"/>
			
				<polyline style="fill:none;stroke:#FFFFFF;stroke-width:3;stroke-linecap:round;stroke-linejoin:round;stroke-miterlimit:10;" points="
				355.73,150.611 355.73,159.283 374.73,156.986 374.73,148.115 			"/>
			
				<line style="fill:none;stroke:#FFFFFF;stroke-width:3;stroke-linecap:round;stroke-linejoin:round;stroke-miterlimit:10;" x1="353.667" y1="164.653" x2="376.917" y2="161.898"/>
			
				<polyline style="fill:none;stroke:#FFFFFF;stroke-width:3;stroke-linecap:round;stroke-linejoin:round;stroke-miterlimit:10;" points="
				355.73,164.653 355.73,173.325 374.73,171.028 374.73,162.158 			"/>
			
				<line style="fill:none;stroke:#FFFFFF;stroke-width:3;stroke-linecap:round;stroke-linejoin:round;stroke-miterlimit:10;" x1="353.667" y1="178.695" x2="376.917" y2="175.941"/>
			
				<polyline style="fill:none;stroke:#FFFFFF;stroke-width:3;stroke-linecap:round;stroke-linejoin:round;stroke-miterlimit:10;" points="
				355.73,178.695 355.73,187.367 374.73,185.07 374.73,176.2 			"/>
			
				<line style="fill:none;stroke:#FFFFFF;stroke-width:3;stroke-linecap:round;stroke-linejoin:round;stroke-miterlimit:10;" x1="321.092" y1="206.139" x2="321.092" y2="149.578"/>
			
				<line style="fill:none;stroke:#FFFFFF;stroke-width:3;stroke-linecap:round;stroke-linejoin:round;stroke-miterlimit:10;" x1="412.917" y1="194.141" x2="412.917" y2="137.581"/>
		</g>
		<g>
			
				<polyline style="fill:none;stroke:#FFFFFF;stroke-width:3;stroke-linecap:round;stroke-linejoin:round;stroke-miterlimit:10;" points="
				420.507,145.468 554.855,128.123 569.555,132.786 			"/>
			
				<line style="fill:none;stroke:#FFFFFF;stroke-width:3;stroke-linecap:round;stroke-linejoin:round;stroke-miterlimit:10;" x1="426.922" y1="192.585" x2="426.922" y2="144.542"/>
			<path style="fill:none;stroke:#FFFFFF;stroke-width:3;stroke-linecap:round;stroke-linejoin:round;stroke-miterlimit:10;" d="
				M450.23,189.467v-61.115c0-0.781,0.579-1.441,1.354-1.541l13.267-1.722c0.93-0.121,1.754,0.603,1.754,1.541v60.723"/>
			<path style="fill:none;stroke:#FFFFFF;stroke-width:3;stroke-linecap:round;stroke-linejoin:round;stroke-miterlimit:10;" d="
				M511.98,181.412v-61.116c0-0.781,0.579-1.44,1.354-1.541l13.267-1.722c0.93-0.121,1.754,0.603,1.754,1.541v60.723"/>
			
				<line style="fill:none;stroke:#FFFFFF;stroke-width:3;stroke-linecap:round;stroke-linejoin:round;stroke-miterlimit:10;" x1="548.105" y1="177.096" x2="548.105" y2="129.053"/>
			<g>
				
					<polygon style="fill:none;stroke:#FFFFFF;stroke-width:3;stroke-linecap:round;stroke-linejoin:round;stroke-miterlimit:10;" points="
					474.417,144.703 474.417,153.181 480.292,152.321 480.292,143.969 				"/>
				
					<polygon style="fill:none;stroke:#FFFFFF;stroke-width:3;stroke-linecap:round;stroke-linejoin:round;stroke-miterlimit:10;" points="
					486.306,143.203 486.306,151.681 492.181,150.821 492.181,142.469 				"/>
				
					<polygon style="fill:none;stroke:#FFFFFF;stroke-width:3;stroke-linecap:round;stroke-linejoin:round;stroke-miterlimit:10;" points="
					498.292,141.632 498.292,150.11 504.167,149.25 504.167,140.897 				"/>
			</g>
			<g>
				
					<polygon style="fill:none;stroke:#FFFFFF;stroke-width:3;stroke-linecap:round;stroke-linejoin:round;stroke-miterlimit:10;" points="
					474.417,158.328 474.417,166.806 480.292,165.946 480.292,157.594 				"/>
				
					<polygon style="fill:none;stroke:#FFFFFF;stroke-width:3;stroke-linecap:round;stroke-linejoin:round;stroke-miterlimit:10;" points="
					486.306,156.828 486.306,165.306 492.181,164.446 492.181,156.094 				"/>
				
					<polygon style="fill:none;stroke:#FFFFFF;stroke-width:3;stroke-linecap:round;stroke-linejoin:round;stroke-miterlimit:10;" points="
					498.292,155.257 498.292,163.735 504.167,162.875 504.167,154.522 				"/>
			</g>
			<g>
				
					<polygon style="fill:none;stroke:#FFFFFF;stroke-width:3;stroke-linecap:round;stroke-linejoin:round;stroke-miterlimit:10;" points="
					474.417,171.953 474.417,180.431 480.292,179.571 480.292,171.219 				"/>
				
					<polygon style="fill:none;stroke:#FFFFFF;stroke-width:3;stroke-linecap:round;stroke-linejoin:round;stroke-miterlimit:10;" points="
					486.306,170.453 486.306,178.931 492.181,178.071 492.181,169.719 				"/>
				
					<polygon style="fill:none;stroke:#FFFFFF;stroke-width:3;stroke-linecap:round;stroke-linejoin:round;stroke-miterlimit:10;" points="
					498.292,168.882 498.292,177.36 504.167,176.5 504.167,168.147 				"/>
			</g>
			
				<line style="fill:none;stroke:#FFFFFF;stroke-width:3;stroke-linecap:round;stroke-linejoin:round;stroke-miterlimit:10;" x1="420.507" y1="150.11" x2="450.23" y2="146.361"/>
			
				<line style="fill:none;stroke:#FFFFFF;stroke-width:3;stroke-linecap:round;stroke-linejoin:round;stroke-miterlimit:10;" x1="420.507" y1="163.635" x2="450.23" y2="159.886"/>
			
				<line style="fill:none;stroke:#FFFFFF;stroke-width:3;stroke-linecap:round;stroke-linejoin:round;stroke-miterlimit:10;" x1="420.507" y1="158.993" x2="450.23" y2="155.244"/>
			
				<line style="fill:none;stroke:#FFFFFF;stroke-width:3;stroke-linecap:round;stroke-linejoin:round;stroke-miterlimit:10;" x1="420.507" y1="177.16" x2="450.23" y2="173.411"/>
			
				<line style="fill:none;stroke:#FFFFFF;stroke-width:3;stroke-linecap:round;stroke-linejoin:round;stroke-miterlimit:10;" x1="420.507" y1="172.519" x2="450.23" y2="168.77"/>
			
				<polyline style="fill:none;stroke:#FFFFFF;stroke-width:3;stroke-linecap:round;stroke-linejoin:round;stroke-miterlimit:10;" points="
				528.355,136.109 554.855,132.786 569.555,137.392 			"/>
			
				<polyline style="fill:none;stroke:#FFFFFF;stroke-width:3;stroke-linecap:round;stroke-linejoin:round;stroke-miterlimit:10;" points="
				528.355,149.634 554.855,146.312 584.199,153.704 			"/>
			
				<polyline style="fill:none;stroke:#FFFFFF;stroke-width:3;stroke-linecap:round;stroke-linejoin:round;stroke-miterlimit:10;" points="
				528.355,144.992 554.855,141.67 584.199,149.216 			"/>
			
				<polyline style="fill:none;stroke:#FFFFFF;stroke-width:3;stroke-linecap:round;stroke-linejoin:round;stroke-miterlimit:10;" points="
				528.355,163.159 554.855,159.837 578.761,164.861 			"/>
			
				<polyline style="fill:none;stroke:#FFFFFF;stroke-width:3;stroke-linecap:round;stroke-linejoin:round;stroke-miterlimit:10;" points="
				528.355,158.518 554.855,155.195 579.792,160.642 			"/>
			
				<line style="fill:none;stroke:#FFFFFF;stroke-width:3;stroke-linecap:round;stroke-linejoin:round;stroke-miterlimit:10;" x1="528.355" y1="176.685" x2="554.855" y2="173.363"/>
			
				<polyline style="fill:none;stroke:#FFFFFF;stroke-width:3;stroke-linecap:round;stroke-linejoin:round;stroke-miterlimit:10;" points="
				528.355,172.043 554.855,168.721 571.449,172.043 			"/>
			
				<line style="fill:none;stroke:#FFFFFF;stroke-width:3;stroke-linecap:round;stroke-linejoin:round;stroke-miterlimit:10;" x1="458.417" y1="146.361" x2="458.417" y2="188.41"/>
			
				<line style="fill:none;stroke:#FFFFFF;stroke-width:3;stroke-linecap:round;stroke-linejoin:round;stroke-miterlimit:10;" x1="520.167" y1="138.104" x2="520.167" y2="180.153"/>
			<path style="fill:none;stroke:#FFFFFF;stroke-width:3;stroke-linecap:round;stroke-linejoin:round;stroke-miterlimit:10;" d="
				M461.355,132.796c0,1.622-1.315,3.147-2.938,3.406c-1.622,0.259-2.937-0.846-2.937-2.469c0-1.622,1.315-3.147,2.937-3.406
				C460.04,130.068,461.355,131.173,461.355,132.796z"/>
			<path style="fill:none;stroke:#FFFFFF;stroke-width:3;stroke-linecap:round;stroke-linejoin:round;stroke-miterlimit:10;" d="
				M523.105,124.606c0,1.622-1.315,3.147-2.938,3.406c-1.622,0.259-2.938-0.846-2.938-2.469c0-1.622,1.315-3.147,2.938-3.406
				C521.79,121.879,523.105,122.984,523.105,124.606z"/>
			
				<line style="fill:none;stroke:#FFFFFF;stroke-width:3;stroke-linecap:round;stroke-linejoin:round;stroke-miterlimit:10;" x1="466.605" y1="125.075" x2="478.855" y2="130.986"/>
			
				<line style="fill:none;stroke:#FFFFFF;stroke-width:3;stroke-linecap:round;stroke-linejoin:round;stroke-miterlimit:10;" x1="526.601" y1="117.034" x2="540.105" y2="123.236"/>
			
				<line style="fill:none;stroke:#FFFFFF;stroke-width:3;stroke-linecap:round;stroke-linejoin:round;stroke-miterlimit:10;" x1="420.507" y1="190.686" x2="450.23" y2="186.937"/>
			
				<line style="fill:none;stroke:#FFFFFF;stroke-width:3;stroke-linecap:round;stroke-linejoin:round;stroke-miterlimit:10;" x1="420.507" y1="186.044" x2="450.23" y2="182.295"/>
		</g>
	</g>
	<g>
		<g>
			<g>
				<path style="fill:none;stroke:#FFFFFF;stroke-width:3;stroke-linecap:round;stroke-linejoin:round;stroke-miterlimit:10;" d="
					M263.678,115.156c0-4.808-3.898-8.706-8.706-8.706c-1.985,0-3.809,0.672-5.273,1.79c-0.928-3.811-4.354-6.643-8.45-6.643
					c-1.786,0-3.446,0.54-4.828,1.463c0.004-0.124,0.019-0.245,0.019-0.37c0-6.885-5.581-12.466-12.466-12.466
					c-2.953,0-5.661,1.032-7.797,2.747c-2.197-4.378-6.885-7.29-12.213-6.843c-5.427,0.456-9.996,4.519-11.12,9.848
					c-0.379,1.797-0.341,3.532,0.001,5.155c-1.075-0.475-2.262-0.744-3.513-0.744c-4.427,0-8.074,3.307-8.626,7.583l-0.956,0.34
					c-1.66-1.303-3.8-2.024-6.116-1.829c-3.433,0.289-6.38,2.681-7.497,5.94c-0.015,0.042-0.029,0.084-0.042,0.126
					c-0.651,1.996,0.932,4.029,3.031,4.029c15.798,0,82.829,0,93.102,0c0.784,0,1.448-0.622,1.449-1.406
					C263.678,115.166,263.678,115.161,263.678,115.156z"/>
			</g>
			<g>
				<path style="fill:none;stroke:#FFFFFF;stroke-width:3;stroke-linecap:round;stroke-linejoin:round;stroke-miterlimit:10;" d="
					M275.905,76.48c0-3.277,2.656-5.933,5.933-5.933c1.353,0,2.596,0.458,3.594,1.22c0.632-2.597,2.967-4.527,5.759-4.527
					c1.217,0,2.348,0.368,3.29,0.997c-0.003-0.085-0.013-0.167-0.013-0.252c0-4.692,3.803-8.495,8.495-8.495
					c2.012,0,3.858,0.703,5.314,1.872c1.497-2.984,4.692-4.968,8.323-4.663c3.699,0.311,6.812,3.079,7.578,6.711
					c0.258,1.225,0.232,2.407-0.001,3.513c0.733-0.324,1.542-0.507,2.394-0.507c3.017,0,5.502,2.254,5.878,5.168l0.651,0.231
					c1.131-0.888,2.589-1.379,4.168-1.246c2.339,0.197,4.348,1.827,5.109,4.048c0.01,0.029,0.019,0.057,0.029,0.086
					c0.443,1.36-0.635,2.745-2.066,2.745c-10.766,0-56.446,0-63.447,0c-0.535,0-0.986-0.424-0.988-0.958
					C275.905,76.487,275.905,76.483,275.905,76.48z"/>
			</g>
			<g>
				<path style="fill:none;stroke:#FFFFFF;stroke-width:3;stroke-linecap:round;stroke-linejoin:round;stroke-miterlimit:10;" d="
					M514.804,96.273c0-3.277,2.656-5.933,5.933-5.933c1.353,0,2.596,0.458,3.594,1.22c0.632-2.597,2.967-4.527,5.758-4.527
					c1.217,0,2.349,0.368,3.29,0.997c-0.003-0.085-0.013-0.167-0.013-0.252c0-4.692,3.803-8.495,8.495-8.495
					c2.012,0,3.858,0.703,5.313,1.872c1.497-2.984,4.692-4.968,8.323-4.663c3.699,0.311,6.812,3.079,7.578,6.711
					c0.258,1.225,0.232,2.407-0.001,3.513c0.733-0.324,1.542-0.507,2.394-0.507c3.017,0,5.502,2.254,5.878,5.168l0.651,0.232
					c1.131-0.888,2.589-1.379,4.168-1.246c2.339,0.197,4.348,1.827,5.109,4.048c0.01,0.029,0.019,0.057,0.029,0.086
					c0.443,1.36-0.635,2.745-2.066,2.745c-10.766,0-56.446,0-63.447,0c-0.534,0-0.987-0.424-0.988-0.958
					C514.804,96.279,514.804,96.276,514.804,96.273z"/>
			</g>
		</g>
		
			<circle class="sun" style="fill:none;stroke:#FFFFFF;stroke-width:3;stroke-linecap:round;stroke-linejoin:round;stroke-miterlimit:10;" cx="435.369" cy="79.716" r="23.049"/>
	</g>
	<g>
		<path style="fill:none;stroke:#FFFFFF;stroke-width:3;stroke-linecap:round;stroke-linejoin:round;stroke-miterlimit:10;" d="
			M113.414,117.034V71.922c0-8.425,6.83-15.255,15.254-15.255h147.237"/>
		
			<line style="fill:none;stroke:#FFFFFF;stroke-width:3;stroke-linecap:round;stroke-linejoin:round;stroke-miterlimit:10;" x1="281.355" y1="56.668" x2="286.48" y2="56.668"/>
		<path style="fill:none;stroke:#FFFFFF;stroke-width:3;stroke-linecap:round;stroke-linejoin:round;stroke-miterlimit:10;" d="
			M113.414,117.034V71.922c0-8.425,6.83-15.255,15.254-15.255h147.237"/>
		<path style="fill:none;stroke:#FFFFFF;stroke-width:3;stroke-linecap:round;stroke-linejoin:round;stroke-miterlimit:10;" d="
			M121.887,117.034V72.409c0-4.167,3.378-7.545,7.545-7.545h132.529"/>
		
			<line style="fill:none;stroke:#FFFFFF;stroke-width:3;stroke-linecap:round;stroke-linejoin:round;stroke-miterlimit:10;" x1="341.355" y1="56.668" x2="407.48" y2="56.668"/>
		<path style="fill:none;stroke:#FFFFFF;stroke-width:3;stroke-linecap:round;stroke-linejoin:round;stroke-miterlimit:10;" d="
			M462.855,56.668h151.191c10.913,0,19.759,8.846,19.759,19.759v9.657"/>
		
			<line style="fill:none;stroke:#FFFFFF;stroke-width:3;stroke-linecap:round;stroke-linejoin:round;stroke-miterlimit:10;" x1="489.244" y1="64.864" x2="596.855" y2="64.864"/>
	</g>
	<g>
		<path style="fill:none;stroke:#FFFFFF;stroke-width:3;stroke-linecap:round;stroke-linejoin:round;stroke-miterlimit:10;" d="
			M282.428,126.531c0,0,4.975,0.563,5.35,5.438c0,0,1.172-7.5,8.086-7.875"/>
		<path style="fill:none;stroke:#FFFFFF;stroke-width:3;stroke-linecap:round;stroke-linejoin:round;stroke-miterlimit:10;" d="
			M314.374,101.265c0,0,4.975,0.563,5.35,5.438c0,0,1.172-7.5,8.086-7.875"/>
		<path style="fill:none;stroke:#FFFFFF;stroke-width:3;stroke-linecap:round;stroke-linejoin:round;stroke-miterlimit:10;" d="
			M152.156,84.584c0,0,4.976,0.563,5.351,5.438c0,0,1.172-7.5,8.086-7.875"/>
		<path style="fill:none;stroke:#FFFFFF;stroke-width:3;stroke-linecap:round;stroke-linejoin:round;stroke-miterlimit:10;" d="
			M476.887,104.487c0,0,4.975,0.563,5.35,5.438c0,0,1.172-7.5,8.086-7.875"/>
	</g>
</g>
</svg>
